<svg width="133" height="66" viewBox="0 0 133 66" fill="none" xmlns="http://www.w3.org/2000/svg">
<path d="M91.3643 8.21792C89.2195 5.43782 86.6154 4.04181 83.6265 4.04181H82.836C81.1089 4.04181 79.3699 4.61155 77.6696 5.7391L77.607 5.78384C74.7762 7.94647 73.3384 10.5565 73.3384 13.5395V14.327C73.3757 16.0138 73.8594 17.6606 74.7404 19.0997C74.7548 19.128 74.7718 19.1549 74.7911 19.1802C76.9507 22.3034 79.7696 23.8873 83.1701 23.8873H83.2924C84.8195 23.8896 86.3253 23.5297 87.6863 22.8373L87.743 22.8105C91.3553 20.7463 93.1868 17.7812 93.1868 13.9959V13.8706C93.175 11.8691 92.5504 9.91932 91.3971 8.28355L91.3643 8.21792ZM89.6819 13.8587C89.6632 14.71 89.5163 15.5537 89.2464 16.3613C87.8325 19.046 85.8846 20.3704 83.2805 20.3704C82.3725 20.3638 81.4747 20.1794 80.6376 19.8275C78.0783 18.4196 76.8314 16.5463 76.8314 14.1182V13.9183C76.8193 13.0726 76.9828 12.2336 77.3117 11.4544C78.648 8.81451 80.5929 7.53184 83.2209 7.53184H83.4177C84.323 7.55985 85.2143 7.76243 86.0427 8.12843C88.4947 9.58112 89.6819 11.4574 89.6819 13.8587Z" fill="#507CB7"/>
<path d="M130.871 8.08671L130.829 8.03003C128.651 5.21116 126.014 3.77637 123.008 3.77637H122.205C120.46 3.77637 118.7 4.35506 116.976 5.49752L116.913 5.54227C114.05 7.73174 112.597 10.3687 112.597 13.3844V14.1868C112.635 15.9003 113.127 17.5729 114.023 19.0341C114.038 19.061 114.055 19.087 114.074 19.1116C116.248 22.2676 119.097 23.8694 122.539 23.8694H122.674C123.78 23.8526 124.879 23.6789 125.937 23.3534C125.979 23.3411 126.019 23.3262 126.059 23.3086C127.185 22.8508 128.235 22.2253 129.173 21.4533V22.1095C129.164 22.3465 129.202 22.5831 129.286 22.8049C129.37 23.0268 129.498 23.2294 129.662 23.4005C129.826 23.5717 130.023 23.7079 130.242 23.8009C130.46 23.8939 130.695 23.9419 130.932 23.9419C131.169 23.9419 131.404 23.8939 131.622 23.8009C131.84 23.7079 132.037 23.5717 132.202 23.4005C132.366 23.2294 132.494 23.0268 132.578 22.8049C132.662 22.5831 132.7 22.3465 132.69 22.1095V13.7245C132.676 11.7031 132.041 9.73506 130.871 8.08671ZM129.158 13.7245C129.138 14.5922 128.987 15.452 128.711 16.2749C127.282 19.0222 125.301 20.3585 122.659 20.3585C121.736 20.3497 120.824 20.1612 119.974 19.8037C117.373 18.3778 116.096 16.4777 116.096 13.9959V13.799C116.082 12.9404 116.25 12.0886 116.588 11.2993C117.949 8.61469 119.914 7.29922 122.596 7.29922H122.793C123.715 7.32779 124.622 7.53761 125.463 7.91669C127.95 9.38727 129.158 11.2874 129.158 13.7245Z" fill="#507CB7"/>
<path d="M110.915 18.7149C110.608 18.4946 110.238 18.3808 109.861 18.391C109.484 18.4013 109.12 18.535 108.826 18.7716C107.628 19.7726 106.122 20.3327 104.561 20.3585C103.638 20.3496 102.727 20.1612 101.876 19.8037C99.284 18.3778 98.0222 16.4807 98.0222 14.0078V13.8109C98.0081 12.9574 98.1717 12.1102 98.5025 11.3232C99.8627 8.63854 101.823 7.33499 104.495 7.33499H104.692C106.175 7.33897 107.605 7.88539 108.713 8.87121C108.986 9.09825 109.322 9.23646 109.676 9.26738C110.03 9.2983 110.385 9.22044 110.694 9.04422H110.709C110.95 8.90579 111.155 8.71158 111.306 8.4778C111.458 8.24402 111.551 7.97746 111.578 7.70038C111.605 7.42331 111.565 7.14375 111.462 6.88507C111.36 6.62639 111.196 6.39609 110.986 6.21341C109.326 4.68861 107.158 3.8377 104.904 3.82706H104.101C102.356 3.82706 100.597 4.42364 98.8724 5.55119L98.8097 5.59594C95.9521 7.77349 94.5054 10.4074 94.5054 13.4232V14.2166C94.5428 15.9206 95.0295 17.5845 95.9163 19.04L95.97 19.1206C98.1535 22.2765 101.002 23.8754 104.436 23.8754H104.57C106.971 23.9051 109.294 23.0272 111.076 21.4174C111.27 21.2442 111.422 21.0295 111.522 20.7892C111.621 20.5489 111.665 20.2892 111.651 20.0295C111.636 19.7698 111.563 19.5167 111.437 19.2891C111.311 19.0615 111.136 18.8652 110.923 18.7149H110.915Z" fill="#507CB7"/>
<path d="M70.2363 8.09265C68.0647 5.28869 65.4397 3.86881 62.4359 3.86881H61.5589C60.8464 3.89304 60.1384 3.99304 59.447 4.1671L59.3217 4.2029C57.9719 4.64249 56.7098 5.31595 55.5931 6.19252V1.75689C55.5744 1.30305 55.3809 0.874022 55.0532 0.559518C54.7255 0.245014 54.2888 0.069397 53.8346 0.069397C53.3804 0.069397 52.9438 0.245014 52.616 0.559518C52.2883 0.874022 52.0949 1.30305 52.0762 1.75689V14.2405C52.1142 15.941 52.6021 17.6012 53.4901 19.052C53.505 19.0788 53.5229 19.1057 53.5408 19.1325C55.7183 22.2795 58.5581 23.8754 61.9825 23.8754H62.1167C63.6537 23.876 65.1696 23.5175 66.5434 22.8284L66.6031 22.7985C70.2393 20.7105 72.0827 17.7275 72.0827 13.9094V13.7722C72.0716 11.7595 71.4472 9.79811 70.293 8.14933L70.2363 8.09265ZM68.5509 13.7602C68.537 14.6252 68.3921 15.4831 68.1214 16.3047C66.6985 19.0281 64.7328 20.3525 62.1167 20.3525C61.1951 20.3474 60.2833 20.163 59.4321 19.8096C56.8369 18.3927 55.5931 16.4986 55.5931 14.0317V13.8348C55.5798 12.9861 55.7433 12.144 56.0733 11.3619C57.4335 8.6773 59.3873 7.3857 62.0392 7.3857H62.2361C63.1535 7.40855 64.0575 7.61124 64.8968 7.98228C67.3518 9.44392 68.5509 11.347 68.5509 13.7722V13.7602Z" fill="#507CB7"/>
<path d="M91.3643 37.233C89.2195 34.4559 86.6154 33.0569 83.6265 33.0569H82.836C81.1089 33.0569 79.3699 33.6296 77.6696 34.7542L77.607 34.7989C74.7762 36.9645 73.3384 39.5716 73.3384 42.5546V43.345C73.3757 45.0319 73.8594 46.6787 74.7404 48.1177C74.7553 48.1446 74.7732 48.1714 74.7911 48.1983C76.9507 51.3214 79.7696 52.9054 83.1701 52.9054H83.2924C84.8193 52.9061 86.3248 52.5464 87.6863 51.8554L87.743 51.8255C91.3553 49.7643 93.1868 46.7963 93.1868 43.0109V42.8886C93.175 40.8872 92.5504 38.9374 91.3971 37.3016L91.3643 37.233ZM89.2464 45.3794C87.8325 48.064 85.8846 49.3885 83.2805 49.3885C82.3727 49.3804 81.4751 49.196 80.6376 48.8456C78.0783 47.4346 76.8314 45.5643 76.8314 43.1362V42.9394C76.8187 42.0936 76.9822 41.2545 77.3117 40.4754C78.648 37.8355 80.5929 36.5499 83.2209 36.5499H83.4177C84.3231 36.5767 85.2147 36.7793 86.0427 37.1465C88.4827 38.5992 89.67 40.4754 89.67 42.8767C89.6551 43.7275 89.5123 44.5711 89.2464 45.3794Z" fill="#507CB7"/>
<path d="M130.87 37.1018L130.829 37.0481C128.651 34.2292 126.014 32.7974 122.992 32.7974H122.19C120.445 32.7974 118.685 33.3791 116.961 34.5215L116.898 34.5663C114.035 36.7528 112.582 39.3927 112.582 42.4084V43.2108C112.62 44.9243 113.112 46.597 114.008 48.0581C114.023 48.0851 114.04 48.111 114.059 48.1357C116.233 51.2916 119.082 52.9084 122.524 52.9084H122.658C123.765 52.8901 124.864 52.7164 125.922 52.3923C125.963 52.38 126.004 52.3651 126.044 52.3476C127.17 51.8897 128.22 51.2642 129.158 50.4922V51.1484C129.148 51.3854 129.187 51.622 129.271 51.8438C129.355 52.0657 129.483 52.2683 129.647 52.4394C129.811 52.6106 130.008 52.7468 130.226 52.8398C130.445 52.9328 130.679 52.9808 130.917 52.9808C131.154 52.9808 131.389 52.9328 131.607 52.8398C131.825 52.7468 132.022 52.6106 132.186 52.4394C132.351 52.2683 132.479 52.0657 132.563 51.8438C132.647 51.622 132.685 51.3854 132.675 51.1484V42.7395C132.664 40.72 132.034 38.7523 130.87 37.1018ZM128.711 45.2929C127.282 48.0402 125.301 49.3736 122.658 49.3736C121.736 49.3657 120.824 49.1783 119.974 48.8217C117.373 47.3929 116.096 45.4928 116.096 43.011V42.8141C116.082 41.9565 116.25 41.1057 116.588 40.3174C117.948 37.6327 119.914 36.3173 122.596 36.3173H122.793C123.715 36.3444 124.622 36.5543 125.462 36.9347C127.947 38.4053 129.155 40.3054 129.155 42.7395C129.136 43.6081 128.986 44.4689 128.711 45.2929Z" fill="#507CB7"/>
<path d="M110.915 47.7299C110.607 47.5115 110.238 47.3989 109.861 47.4091C109.484 47.4193 109.121 47.5518 108.826 47.7866C107.628 48.7876 106.122 49.3477 104.561 49.3735C103.639 49.3657 102.727 49.1783 101.876 48.8217C99.284 47.3959 98.0222 45.4987 98.0222 43.0258V42.826C98.0085 41.9724 98.172 41.1253 98.5025 40.3382C99.8627 37.6536 101.823 36.353 104.495 36.353H104.692C106.175 36.3556 107.606 36.9022 108.713 37.8892C109.026 38.1494 109.419 38.2919 109.826 38.2919C110.13 38.2916 110.429 38.2124 110.694 38.0622H110.709C110.95 37.9235 111.155 37.729 111.306 37.4949C111.457 37.2609 111.551 36.9941 111.578 36.7168C111.605 36.4396 111.565 36.1598 111.462 35.9009C111.359 35.642 111.196 35.4114 110.986 35.2285C109.326 33.7044 107.157 32.8536 104.904 32.8421H104.101C102.356 32.8421 100.597 33.4208 98.8724 34.5633L98.8097 34.608C95.9521 36.7885 94.5054 39.4225 94.5054 42.4382V43.2406C94.5424 44.9437 95.0291 46.6068 95.9163 48.061L95.97 48.1446C98.1535 51.2975 101.002 52.8994 104.436 52.8994H104.57C106.971 52.9257 109.294 52.0459 111.076 50.4355C111.269 50.2636 111.422 50.0501 111.522 49.8109C111.621 49.5717 111.666 49.3131 111.651 49.0544C111.636 48.7924 111.562 48.5373 111.434 48.308C111.307 48.0787 111.129 47.8811 110.915 47.7299Z" fill="#507CB7"/>
<path d="M70.2363 37.1077C68.0647 34.3067 65.4398 32.8839 62.4359 32.8839H61.559C60.8465 32.9096 60.1387 33.0096 59.447 33.1822L59.3218 33.218C57.9717 33.6585 56.7096 34.333 55.5931 35.2106V30.7749C55.6028 30.5379 55.5646 30.3014 55.4806 30.0795C55.3966 29.8577 55.2687 29.6551 55.1045 29.4839C54.9402 29.3128 54.7431 29.1766 54.5248 29.0835C54.3066 28.9905 54.0719 28.9426 53.8346 28.9426C53.5974 28.9426 53.3627 28.9905 53.1444 29.0835C52.9262 29.1766 52.7291 29.3128 52.5648 29.4839C52.4006 29.6551 52.2726 29.8577 52.1887 30.0795C52.1047 30.3014 52.0664 30.5379 52.0762 30.7749V43.2585C52.1143 44.9581 52.6022 46.6173 53.4901 48.067C53.5053 48.0959 53.5222 48.1238 53.5408 48.1506C55.7184 51.2976 58.5581 52.8934 61.9825 52.8934H62.1168C63.6537 52.894 65.1696 52.5355 66.5434 51.8464L66.6031 51.8136C70.2393 49.7255 72.0828 46.7426 72.0828 42.9244V42.7902C72.0725 40.7774 71.4481 38.8157 70.293 37.1674C70.273 37.1486 70.2541 37.1287 70.2363 37.1077ZM68.1214 45.3287C66.6986 48.0491 64.7328 49.3736 62.1168 49.3736C61.1955 49.368 60.2839 49.1847 59.4321 48.8336C56.8489 47.4078 55.5901 45.5136 55.5901 43.0497V42.8529C55.5771 42.0032 55.7406 41.1602 56.0704 40.377C57.4306 37.6924 59.3844 36.4037 62.0362 36.4037H62.2331C63.1505 36.4266 64.0545 36.6293 64.8939 37.0003C67.3608 38.462 68.5599 40.3532 68.5599 42.7813C68.5428 43.6476 68.395 44.5065 68.1214 45.3287Z" fill="#507CB7"/>
<path d="M17.301 21.6144C14.1297 21.4691 10.9947 22.3396 8.35222 24.0992V0C6.13829 0.00394291 4.01616 0.885172 2.45067 2.45066C0.885174 4.01616 0.00394291 6.13829 0 8.35223V44.5919C0 46.811 0.881537 48.9393 2.45068 50.5084C4.01982 52.0775 6.14804 52.9591 8.36714 52.9591V49.0186C10.2878 50.2948 12.4775 51.1096 14.7652 51.3995C17.0529 51.6894 19.3767 51.4465 21.5549 50.6898C23.7332 49.9331 25.7071 48.683 27.3223 47.0372C28.9376 45.3914 30.1505 43.3945 30.8663 41.2024C31.5821 39.0104 31.7815 36.6825 31.4488 34.4006C31.1161 32.1188 30.2604 29.9447 28.9485 28.0482C27.6366 26.1518 25.904 24.5843 23.8861 23.4682C21.8682 22.3521 19.6196 21.7177 17.316 21.6144H17.301Z" fill="#507CB7"/>
<path opacity="0.5" d="M34.7958 0.0357666H22.2675C22.1441 0.0363098 22.0246 0.0788723 21.9286 0.156443C21.8326 0.234014 21.7659 0.341963 21.7395 0.462502C21.7131 0.583041 21.7286 0.708979 21.7833 0.819562C21.8381 0.930144 21.9289 1.01877 22.0408 1.07084C23.9375 1.9822 25.5662 3.36878 26.7685 5.0958C27.9708 6.82281 28.7059 8.83151 28.9023 10.9267C29.0986 13.0218 28.7496 15.1321 27.8891 17.0524C27.0286 18.9728 25.686 20.6379 23.9916 21.8858C26.7709 23.242 29.1132 25.3517 30.7518 27.9744C32.3904 30.5972 33.2594 33.6274 33.2596 36.7199C33.2739 40.2281 32.1382 43.6443 30.0264 46.4456C27.9146 49.247 24.943 51.2792 21.5665 52.2312C19.0727 52.792 16.0123 53.2603 12.7042 52.5027C11.5747 52.2322 10.4754 51.8484 9.42295 51.3572V52.8994L6.77112 64.3956C6.71799 64.6588 6.74517 64.9318 6.84911 65.1793C6.95305 65.4268 7.12897 65.6373 7.35404 65.7836C7.57912 65.9299 7.84296 66.0052 8.11134 65.9997C8.37972 65.9942 8.64027 65.9082 8.85917 65.7529L26.4764 52.8994H34.757C35.8308 52.8994 36.894 52.6879 37.8859 52.277C38.8779 51.8661 39.7793 51.2639 40.5385 50.5046C41.2977 49.7454 41.9 48.844 42.3109 47.8521C42.7218 46.8601 42.9333 45.7969 42.9333 44.7232V8.20901C42.9325 6.04776 42.0761 3.97472 40.5512 2.44314C39.0263 0.911549 36.957 0.0460168 34.7958 0.0357666Z" fill="#507CB7"/>
</svg>
